<svg xmlns="http://www.w3.org/2000/svg" xmlns:osb="http://www.openswatchbook.org/uri/2009/osb" xmlns:xlink="http://www.w3.org/1999/xlink" width="540" height="250"><defs/><defs><linearGradient id="d"><stop offset="0"/><stop offset="1" stop-opacity="0"/></linearGradient><linearGradient id="a"><stop offset="0"/><stop offset="1" stop-opacity="0"/></linearGradient><linearGradient id="b" osb:paint="gradient"><stop offset="0"/><stop offset="1" stop-opacity="0"/></linearGradient><linearGradient id="c"><stop offset="0" stop-color="#ff0"/><stop offset="1" stop-color="#ff0" stop-opacity="0"/></linearGradient><linearGradient id="e" x1="473.107" x2="214.099" y1="965.549" y2="966.526" gradientUnits="userSpaceOnUse" xlink:href="#d"/><radialGradient id="f" cx="75" cy="324.709" r="60.707" fx="75" fy="324.709" gradientTransform="matrix(1.19972 0 0 1.04945 -14.424 -16.563)" gradientUnits="userSpaceOnUse" xlink:href="#a"/><radialGradient id="g" cx="75.554" cy="324.115" r="72.831" fx="75.554" fy="324.115" gradientTransform="matrix(1 0 0 .87354 0 40.986)" gradientUnits="userSpaceOnUse" xlink:href="#b"/><radialGradient id="i" cx="75.25" cy="333.062" r="29.5" fx="75.25" fy="333.062" gradientTransform="matrix(1.51714 -.0083 .00847 1.55085 -41.737 -182.843)" gradientUnits="userSpaceOnUse" xlink:href="#c"/><filter id="h" width="1.022" height="1.026" x="-.011" y="-.013" color-interpolation-filters="sRGB"><feGaussianBlur stdDeviation=".675"/></filter></defs><path fill="#fff" d="M-1.01-2.538h551.543v257.589H-1.01z"/><text x="550.445" y="908.681" fill="url(#e)" stroke-width=".669" font-family="sans-serif" font-size="21.403" font-weight="400" letter-spacing="0" style="line-height:1.25;text-align:end" text-anchor="end" transform="matrix(.96722 0 0 1.03389 0 -872.52)" word-spacing="0"><tspan x="550.445" y="908.681" font-size="17.836" style="text-align:end">Подарочный пай участнику</tspan><tspan x="550.445" y="935.435" font-size="17.836" style="text-align:end">кооператива Благополучие</tspan><tspan x="550.445" y="988.944" font-size="17.836" font-weight="700" style="text-align:end">на сумму 5 монет WBN</tspan><tspan x="550.445" y="1042.452" font-size="17.836" font-style="italic" style="text-align:end"> 2020 WellBeing Network</tspan></text><g transform="matrix(1.87836 0 0 1.87836 3.543 -482.265)"><path fill="url(#f)" stroke="url(#g)" stroke-width="1.2" d="M21.567 387.312l17.996-17.995h17.996l63.585-62.385 26.393 26.393-26.393 26.394-73.183-70.783 27.593-27.594 27.594 27.594-71.983 71.983L3.57 333.325l26.394-26.393 63.585 62.385h17.996l17.996 17.995" filter="url(#h)"/><ellipse cx="75.25" cy="333.062" fill="url(#i)" rx="29.5" ry="30"/></g><g fill="gray"><path d="M57.28 93.345L195.466 230.67l28.004-1.326-16.222-14.916L85.332 92.77z"/><path d="M235.09 93.182L98.19 229.228l-23.854-.486 10.785-14.476L207.038 92.607z"/><path d="M234.721 195.72L94.466 56.34l-.157 26.013 114.147 113.905z"/><path d="M58.326 195.85L197.805 57.242l.157 25.869L84.445 196.385zM84.165 93.603l-26.67-.08-37.282 37.343-.204 27.033zM272.337 131.182l.08 26.67-37.343 37.281-27.033.205z"/><path d="M197.639 81.893l.081-26.67-37.344-37.282-27.033-.204zM271.937 156.59l.081-26.669-37.344-37.282-27.032-.204zM20.379 131.581l-.081 26.67 37.344 37.282 27.033.204z"/><path d="M159.262 17.31l-27.062-.083L94.37 55.12l-.207 27.43zM222.87 231.33l-4.103-19.35-145.188.265-3.804 18.844z"/></g></svg>