<svg xmlns="http://www.w3.org/2000/svg" xmlns:osb="http://www.openswatchbook.org/uri/2009/osb" xmlns:xlink="http://www.w3.org/1999/xlink" width="540" height="250"><defs/><defs><linearGradient id="e"><stop offset="0"/><stop offset="1" stop-opacity="0"/></linearGradient><linearGradient id="d"><stop offset="0" stop-color="#373674"/><stop offset="1" stop-color="#373674" stop-opacity="0"/></linearGradient><linearGradient id="a"><stop offset="0"/><stop offset="1" stop-opacity="0"/></linearGradient><linearGradient id="b" osb:paint="gradient"><stop offset="0"/><stop offset="1" stop-opacity="0"/></linearGradient><linearGradient id="c"><stop offset="0" stop-color="#ff0"/><stop offset="1" stop-color="#ff0" stop-opacity="0"/></linearGradient><linearGradient id="h" x1="473.107" x2="214.099" y1="965.549" y2="966.526" gradientUnits="userSpaceOnUse" xlink:href="#e"/><radialGradient id="i" cx="75" cy="324.709" r="60.707" fx="75" fy="324.709" gradientTransform="matrix(1.19972 0 0 1.04945 -14.424 -16.563)" gradientUnits="userSpaceOnUse" xlink:href="#a"/><radialGradient id="j" cx="75.554" cy="324.115" r="72.831" fx="75.554" fy="324.115" gradientTransform="matrix(1 0 0 .87354 0 40.986)" gradientUnits="userSpaceOnUse" xlink:href="#b"/><radialGradient id="l" cx="75.25" cy="333.062" r="29.5" fx="75.25" fy="333.062" gradientTransform="matrix(1.51714 -.0083 .00847 1.55085 -41.737 -182.843)" gradientUnits="userSpaceOnUse" xlink:href="#c"/><radialGradient id="f" cx="272.256" cy="127.266" r="273.246" fx="272.256" fy="127.266" gradientTransform="matrix(1 0 0 .46765 -139.924 75.608)" gradientUnits="userSpaceOnUse" xlink:href="#d"/><radialGradient id="g" cx="272.256" cy="127.266" r="273.246" fx="272.256" fy="127.266" gradientTransform="matrix(1 0 0 .46765 140.452 82.898)" gradientUnits="userSpaceOnUse" xlink:href="#c"/><filter id="k" width="1.022" height="1.026" x="-.011" y="-.013" color-interpolation-filters="sRGB"><feGaussianBlur stdDeviation=".675"/></filter></defs><path fill="url(#f)" d="M-140.914 7.34h546.493v255.569h-546.493z"/><path fill="url(#g)" d="M139.462 14.63h546.493v255.569H139.462z"/><g><path fill="#fff" d="M-1.01-2.538h551.543v257.589H-1.01z"/><text x="550.445" y="908.681" fill="url(#h)" stroke-width=".669" font-family="sans-serif" font-size="21.403" font-weight="400" letter-spacing="0" transform="matrix(.96722 0 0 1.03389 0 -872.52)" style="line-height:1.25;text-align:end" text-anchor="end" word-spacing="0"><tspan style="text-align:end" x="550.445" y="908.681" font-size="17.836">Подарочный пай участнику</tspan><tspan style="text-align:end" x="550.445" y="935.435" font-size="17.836">кооператива Благополучие</tspan><tspan style="text-align:end" x="550.445" y="988.944" font-size="17.836" font-weight="700">на сумму 5 монет WBN</tspan><tspan style="text-align:end" x="550.445" y="1042.452" font-size="17.836" font-style="italic"> 2020 WellBeing Network</tspan></text><g transform="matrix(1.87836 0 0 1.87836 3.543 -482.265)"><path fill="url(#i)" stroke="url(#j)" stroke-width="1.2" d="M21.567 387.312l17.996-17.995h17.996l63.585-62.385 26.393 26.393-26.393 26.394-73.183-70.783 27.593-27.594 27.594 27.594-71.983 71.983L3.57 333.325l26.394-26.393 63.585 62.385h17.996l17.996 17.995" filter="url(#k)"/><ellipse cx="75.25" cy="333.062" fill="url(#l)" rx="29.5" ry="30"/></g></g></svg>